<?xml version="1.0" encoding="UTF-8" standalone="no"?>
<!DOCTYPE svg PUBLIC "-//W3C//DTD SVG 1.1//EN" "http://www.w3.org/Graphics/SVG/1.1/DTD/svg11.dtd">
<svg width="100%" height="100%" viewBox="0 0 587 684" version="1.1" xmlns="http://www.w3.org/2000/svg" xmlns:xlink="http://www.w3.org/1999/xlink" xml:space="preserve" xmlns:serif="http://www.serif.com/" style="fill-rule:evenodd;clip-rule:evenodd;stroke-linecap:round;stroke-linejoin:round;stroke-miterlimit:1.5;">
    <g id="Board-Outline" serif:id="Board Outline" transform="matrix(1,0,0,1,-78.7141,-392.662)">
        <rect x="78.714" y="392.662" width="586.528" height="683.352" style="fill:none;"/>
        <g transform="matrix(1,0,0,1,-196.044,92.9488)">
            <path d="M497.696,395.957C497.696,395.957 506.404,325.708 515.332,324.716C524.259,323.724 551.26,390.004 551.26,390.004C567.127,387.915 616.262,394.705 634.317,407.977C660.976,375.479 704.86,357.21 744.718,355.139C759.82,399.397 764.834,441.588 743.594,490.96C779.151,592.753 757.529,670.785 670.918,716.501C678.325,747.038 684.665,763.377 691.422,808.949C720.344,784.385 721.887,780.183 725.359,766.231C730.011,747.531 732.822,697.238 761.605,668.075C782.541,646.863 817.446,632.118 818.12,663.308C818.715,690.82 789.799,696.369 778.021,734.119C772,753.42 773.742,766.157 767.899,796.297C758.444,845.065 714.874,875.949 705.148,879.025C712.985,890.712 716.481,912.491 707.593,925.126C702.998,931.657 696.322,938.629 682.383,939.845C673.421,940.627 656.759,944.161 629.625,926.456C606.533,933.095 514.91,934.226 491.728,926.918C470.408,940.425 444.372,940.94 433.018,938.277C421.226,935.511 412.175,927.346 408.491,918.009C400.398,897.5 413.697,876.056 427.983,871.214C420.834,842.293 423.334,797.43 439.868,733.549C406.885,722.423 381.849,702.782 362.926,678.716C331.484,638.727 321.808,575.445 337.627,537.964C319.441,525.494 293.588,458.39 308.151,405.631C354.576,401.02 391.672,413.727 420.348,429.401C436.768,416.386 484.66,398.136 497.696,395.957Z" style="fill:none;stroke:black;stroke-width:3.89px;"/>
        </g>
    </g>
</svg>
