<?xml version="1.0" encoding="UTF-8" standalone="no"?>
<!DOCTYPE svg PUBLIC "-//W3C//DTD SVG 1.1//EN" "http://www.w3.org/Graphics/SVG/1.1/DTD/svg11.dtd">
<svg width="100%" height="100%" viewBox="0 0 297 398" version="1.1" xmlns="http://www.w3.org/2000/svg" xmlns:xlink="http://www.w3.org/1999/xlink" xml:space="preserve" xmlns:serif="http://www.serif.com/" style="fill-rule:evenodd;clip-rule:evenodd;stroke-linecap:round;stroke-linejoin:round;stroke-miterlimit:10;">
    <g transform="matrix(1,0,0,1,-611,-191)">
        <g id="Top-Silkscreen" serif:id="Top Silkscreen" transform="matrix(1,0,0,1,-0.649209,-0.282909)">
            <rect x="611.649" y="191.283" width="296.449" height="397.13" style="fill:none;"/>
            <g transform="matrix(1,0,0,1,-17.794,-445.651)">
                <path d="M764.156,747.709C765.631,754.629 760.776,761.463 754.306,764.334C742.986,769.356 721.868,741.209 734.452,734.534C750.116,731.646 737.337,768.663 723.351,768.501C716.269,768.419 710.089,761.672 709.93,754.597" style="fill:none;stroke:black;stroke-width:10.28px;"/>
            </g>
            <g transform="matrix(4.16667,0,0,4.16667,699.422,548.992)">
                <path d="M-0.454,-27.363C2.843,-18.933 4.322,-13.931 4.813,-9.488C5.354,-4.593 1.477,0 -3.743,-0.257C-8.864,-0.508 -11.371,-5.947 -12.745,-10.042C-14.011,-13.812 -15.088,-18.866 -15.738,-22.773" style="fill:none;fill-rule:nonzero;stroke:black;stroke-width:0.96px;"/>
            </g>
            <g transform="matrix(4.16314,-0.171493,0.171493,4.16314,749.631,551.709)">
                <path d="M0,-26.962C-2.995,-19.242 -3.886,-14.786 -4.85,-9.495C-5.732,-4.65 -1.533,0 3.688,-0.245C8.809,-0.486 10.89,-6.118 12.418,-10.159C14.17,-14.793 15.297,-19.216 16.011,-21.714" style="fill:none;fill-rule:nonzero;stroke:black;stroke-width:1px;"/>
            </g>
            <g transform="matrix(5.39369,0,0,5.39369,880.058,221.958)">
                <path d="M0,15.542C-2.194,14.846 -5.159,14.572 -7.422,14.149C-9.685,13.726 -12.174,12.886 -13.282,10.868C-14.234,9.133 -12.758,6.605 -10.795,5.911C-8.888,5.237 -4.449,6.311 -5.201,6.943C-5.921,7.549 -5.483,2.939 -2.905,1.081C-1.718,0.225 0.057,-0.162 1.397,1.004C2.944,2.35 2.722,4.784 2.488,6.821C2.138,9.866 0.959,12.673 0.118,15.521" style="fill:none;fill-rule:nonzero;stroke:black;stroke-width:1.08px;"/>
            </g>
            <g transform="matrix(0.999153,-0.0411583,0.0411583,0.999153,-223.833,46.0156)">
                <path d="M933.313,496.659C933.313,492.774 961.57,487.272 972.765,491.319C988.132,496.874 1002.3,510.967 999.236,514.029" style="fill:none;stroke:black;stroke-width:3.89px;stroke-miterlimit:1.5;"/>
            </g>
            <g transform="matrix(0.880397,-0.474238,0.474238,0.880397,-405.048,528.577)">
                <path d="M935.13,492.255C933.177,490.179 961.275,482.347 975.647,487.212C992.598,492.95 996.019,499.931 1001.83,511.206" style="fill:none;stroke:black;stroke-width:3.89px;stroke-miterlimit:1.5;"/>
            </g>
        </g>
    </g>
</svg>
