<?xml version="1.0" encoding="UTF-8" standalone="no"?>
<!DOCTYPE svg PUBLIC "-//W3C//DTD SVG 1.1//EN" "http://www.w3.org/Graphics/SVG/1.1/DTD/svg11.dtd">
<svg width="100%" height="100%" viewBox="0 0 587 684" version="1.1" xmlns="http://www.w3.org/2000/svg" xmlns:xlink="http://www.w3.org/1999/xlink" xml:space="preserve" xmlns:serif="http://www.serif.com/" style="fill-rule:evenodd;clip-rule:evenodd;stroke-linecap:round;stroke-linejoin:round;stroke-miterlimit:1.5;">
    <g id="Board-Outline" serif:id="Board Outline" transform="matrix(1,0,0,1,-78.7141,-392.662)">
        <rect x="78.714" y="392.662" width="586.528" height="683.352" style="fill:none;"/>
        <g transform="matrix(1,0,0,1,-196.044,92.9488)">
            <path d="M497.696,395.957C497.696,395.957 506.404,317.815 515.332,316.822C524.259,315.83 551.26,390.004 551.26,390.004C567.127,387.915 624.155,398.088 635.444,411.36C662.103,378.862 704.86,357.21 744.718,355.139C759.82,399.397 764.834,441.588 743.594,490.96C789.024,584.29 768.706,661.205 670.918,716.501C684.558,754.829 694.971,798.812 695.933,837.14C729.787,819.975 731.189,798.264 729.869,763.975C729.113,744.333 739.897,695.487 761.605,669.203C791.514,632.99 813.656,624.048 821.647,644.122C828.819,662.14 810.598,677.227 793.808,699.163C769.163,731.362 766.113,763.977 767.899,796.297C770.641,845.897 714.874,875.949 705.148,879.025C712.985,890.712 718.79,912.029 709.902,924.665C700.831,937.56 672.953,941.109 631.934,938.927C608.843,945.566 516.296,946.235 493.114,938.927C438.227,944.904 413.026,934.266 408.491,918.009C404.173,902.532 411.818,883.264 420.851,871.418C406.936,848.135 423.334,797.43 439.868,733.549C406.885,722.423 381.849,702.782 362.926,678.716C331.484,638.727 321.808,575.445 337.627,537.964C319.441,525.494 293.588,458.39 308.151,405.631C354.576,401.02 391.672,413.727 420.348,429.401C436.768,416.386 484.66,398.136 497.696,395.957Z" style="fill:none;stroke:black;stroke-width:3.89px;"/>
        </g>
    </g>
</svg>
